<svg width="18" height="18" viewBox="0 0 18 18" fill="none" xmlns="http://www.w3.org/2000/svg">
<path d="M4.71574 2.32987C4.50484 2.54084 4.38636 2.82694 4.38636 3.12525C4.38636 3.42356 4.50484 3.70965 4.71574 3.92062L10.2845 9.48937L4.71574 15.0581C4.51081 15.2703 4.39742 15.5545 4.39998 15.8495C4.40255 16.1444 4.52086 16.4266 4.72944 16.6352C4.93803 16.8438 5.22019 16.9621 5.51516 16.9646C5.81014 16.9672 6.09431 16.8538 6.30649 16.6489L12.6706 10.2847C12.8815 10.0738 13 9.78768 13 9.48937C13 9.19106 12.8815 8.90497 12.6706 8.694L6.30649 2.32987C6.09552 2.11897 5.80942 2.00049 5.51112 2.00049C5.21281 2.00049 4.92671 2.11897 4.71574 2.32987Z" fill="#693B9E"/>
</svg>
