<svg width="32" height="32" viewBox="0 0 32 32" fill="none" xmlns="http://www.w3.org/2000/svg">
<path d="M15.9996 1.8667C13.1867 1.8667 10.437 2.70082 8.09813 4.26358C5.7593 5.82633 3.9364 8.04754 2.85995 10.6463C1.78351 13.2451 1.50186 16.1047 2.05063 18.8635C2.59939 21.6224 3.95393 24.1565 5.94294 26.1455C7.93196 28.1346 10.4661 29.4891 13.225 30.0379C15.9838 30.5866 18.8434 30.305 21.4422 29.2285C24.041 28.1521 26.2622 26.3292 27.8249 23.9904C29.3877 21.6515 30.2218 18.9018 30.2218 16.0889C30.2218 12.317 28.7234 8.69948 26.0562 6.03229C23.389 3.36511 19.7715 1.8667 15.9996 1.8667ZM14.7551 7.82225C14.7551 7.49221 14.8862 7.17568 15.1196 6.9423C15.353 6.70892 15.6695 6.57781 15.9996 6.57781C16.3296 6.57781 16.6461 6.70892 16.8795 6.9423C17.1129 7.17568 17.244 7.49221 17.244 7.82225V18.4889C17.244 18.819 17.1129 19.1355 16.8795 19.3689C16.6461 19.6023 16.3296 19.7334 15.9996 19.7334C15.6695 19.7334 15.353 19.6023 15.1196 19.3689C14.8862 19.1355 14.7551 18.819 14.7551 18.4889V7.82225ZM15.9996 25.4223C15.6831 25.4223 15.3738 25.3284 15.1107 25.1526C14.8475 24.9768 14.6425 24.7269 14.5214 24.4345C14.4003 24.1422 14.3686 23.8205 14.4303 23.5101C14.4921 23.1997 14.6444 22.9146 14.8682 22.6909C15.092 22.4671 15.3771 22.3147 15.6874 22.253C15.9978 22.1913 16.3195 22.2229 16.6119 22.344C16.9042 22.4651 17.1541 22.6702 17.3299 22.9333C17.5057 23.1965 17.5996 23.5058 17.5996 23.8223C17.5996 24.2466 17.431 24.6536 17.1309 24.9536C16.8309 25.2537 16.4239 25.4223 15.9996 25.4223Z" fill="#ED8A19"/>
</svg>
